<svg xmlns="http://www.w3.org/2000/svg" xmlns:xlink="http://www.w3.org/1999/xlink" version="1.1" width="256" height="256" viewBox="0 0 256 256" xml:space="preserve">
<g style="stroke: none; stroke-width: 0; stroke-dasharray: none; stroke-linecap: butt; stroke-linejoin: miter; stroke-miterlimit: 10; fill: none; fill-rule: nonzero; opacity: 1;" transform="translate(1.4065934065934016 1.4065934065934016) scale(2.81 2.81)">
	<path d="M 45 90 L 45 90 C 20.147 90 0 69.853 0 45 v 0 C 0 20.147 20.147 0 45 0 h 0 c 24.853 0 45 20.147 45 45 v 0 C 90 69.853 69.853 90 45 90 z" style="stroke: none; stroke-width: 1; stroke-dasharray: none; stroke-linecap: butt; stroke-linejoin: miter; stroke-miterlimit: 10; fill: rgb(244,88,0); fill-rule: nonzero; opacity: 1;" transform=" matrix(1 0 0 1 0 0) " stroke-linecap="round"/>
	<path d="M 37.751 25.054 v 18.459 c 0 0 6.504 0 9.985 -0.264 c 2.738 -0.479 3.241 -0.744 3.745 -3.481 l 1.008 -4.01 h 2.977 l -0.504 8.763 l 0.264 8.978 h -3.002 l -0.744 -3.506 c -0.744 -2.495 -1.751 -3.002 -3.745 -3.241 c -2.495 -0.264 -9.985 -0.264 -9.985 -0.264 v 15.482 c 0 2.977 1.512 4.249 4.993 4.249 h 10.489 c 3.241 0 6.48 -0.264 8.498 -4.993 l 2.713 -6 h 2.519 c -0.264 1.247 -1.512 12.241 -1.751 14.714 c 0 0 -9.482 -0.24 -13.466 -0.24 h -17.98 l -10.729 0.24 v -2.713 l 3.481 -0.768 c 2.519 -0.504 3.263 -1.247 3.263 -3.241 c 0 0 0.264 -6.744 0.264 -17.98 c 0 -11.208 -0.264 -17.955 -0.264 -17.955 c 0 -2.234 -0.744 -2.738 -3.263 -3.241 l -3.481 -0.737 v -2.738 l 10.489 0.215 h 19.971 c 3.985 0 10.704 -0.719 10.704 -0.719 s -0.24 4.225 -0.504 14.21 H 60.96 l -1.008 -3.506 c -0.983 -4.489 -2.473 -6.722 -5.232 -6.722 H 39.023 C 37.751 24.046 37.751 24.286 37.751 25.054 z" style="stroke: none; stroke-width: 1; stroke-dasharray: none; stroke-linecap: butt; stroke-linejoin: miter; stroke-miterlimit: 10; fill: rgb(255,255,255); fill-rule: nonzero; opacity: 1;" transform=" matrix(1 0 0 1 0 0) " stroke-linecap="round"/>
</g>
</svg>