<svg xmlns="http://www.w3.org/2000/svg" xmlns:xlink="http://www.w3.org/1999/xlink" viewBox="0 0 29.24 29.24"><defs><style>.cls-1{fill:url(#Degradado_sin_nombre_5);}.cls-2{fill:#fff;fill-rule:evenodd;}</style><linearGradient id="Degradado_sin_nombre_5" x1="24.96" y1="4.28" x2="4.28" y2="24.96" gradientTransform="translate(6.71 -4.48) rotate(22.5)" gradientUnits="userSpaceOnUse"><stop offset="0" stop-color="#fc4d3f"/><stop offset="1" stop-color="#cd083f"/></linearGradient></defs><g id="ELEMENTS"><circle class="cls-1" cx="14.62" cy="14.62" r="14.62" transform="translate(-4.48 6.71) rotate(-22.5)"/><path class="cls-2" d="M13.5,17.8a1,1,0,0,0,0,.14c-.66,2.55-.73,3.12-1.4,4.31A14.38,14.38,0,0,1,11,23.85c-.05.06-.09.14-.18.12s-.11-.11-.12-.19a14.08,14.08,0,0,1-.14-2.34c0-1,.16-1.37,1.48-6.9a.46.46,0,0,0,0-.23,3.9,3.9,0,0,1-.11-2.59c.6-1.88,2.74-2,3.11-.47.23,1-.38,2.22-.84,4.09-.39,1.53,1.42,2.62,3,1.5s2-3.51,1.88-5.27c-.21-3.5-4.05-4.26-6.49-3.13-2.79,1.29-3.43,4.75-2.17,6.34.16.2.29.32.23.53s-.15.63-.24,1a.34.34,0,0,1-.5.22,2.85,2.85,0,0,1-1.16-.87,5.54,5.54,0,0,1,0-6.18,7.42,7.42,0,0,1,7.15-3.15,6.05,6.05,0,0,1,5.57,5,8.29,8.29,0,0,1-1.53,5.86c-1.81,2.25-4.75,2.4-6.11,1A3.51,3.51,0,0,1,13.5,17.8Z"/></g></svg>