<svg xmlns="http://www.w3.org/2000/svg" xmlns:xlink="http://www.w3.org/1999/xlink" viewBox="0 0 29.24 29.24"><defs><style>.cls-1{fill:url(#linear-gradient);}.cls-2{fill:#ee1d52;}.cls-2,.cls-3,.cls-4{fill-rule:evenodd;}.cls-3{fill:#fff;}.cls-4{fill:#69c9d0;}</style><linearGradient id="linear-gradient" x1="4.28" y1="4.28" x2="24.96" y2="24.96" gradientUnits="userSpaceOnUse"><stop offset="0" stop-color="#22004a"/><stop offset="0.96" stop-color="#020003"/><stop offset="1"/></linearGradient></defs><g id="ELEMENTS"><circle class="cls-1" cx="14.62" cy="14.62" r="14.62"/><path class="cls-2" d="M18.58,11.94a7.29,7.29,0,0,0,4.24,1.36V10.25a4.41,4.41,0,0,1-.89-.09v2.4a7.34,7.34,0,0,1-4.25-1.36v6.21a5.63,5.63,0,0,1-8.76,4.68,5.64,5.64,0,0,0,9.66-3.94V11.94Zm1.1-3.07a4.16,4.16,0,0,1-1.1-2.49V6h-.85a4.27,4.27,0,0,0,1.95,2.88ZM10.89,19.7a2.51,2.51,0,0,1-.53-1.56,2.57,2.57,0,0,1,2.58-2.57,2.64,2.64,0,0,1,.78.12V12.58a5.37,5.37,0,0,0-.89-.05V15a2.66,2.66,0,0,0-.79-.12,2.57,2.57,0,0,0-1.15,4.87Z"/><path class="cls-3" d="M17.68,11.2a7.34,7.34,0,0,0,4.25,1.36v-2.4a4.26,4.26,0,0,1-2.25-1.29A4.27,4.27,0,0,1,17.73,6H15.51V18.15a2.57,2.57,0,0,1-4.62,1.55A2.57,2.57,0,0,1,12.83,15V12.53a5.62,5.62,0,0,0-3.91,9.56,5.63,5.63,0,0,0,8.76-4.68Z"/><path class="cls-4" d="M21.93,10.16V9.51a4.23,4.23,0,0,1-2.25-.64A4.27,4.27,0,0,0,21.93,10.16ZM17.73,6c0-.11,0-.23-.05-.35V5.25H14.62V17.41A2.58,2.58,0,0,1,12,20a2.47,2.47,0,0,1-1.15-.28,2.57,2.57,0,0,0,4.62-1.55V6Zm-4.9,6.54v-.69a5.12,5.12,0,0,0-.78-.06A5.63,5.63,0,0,0,8.92,22.09a5.62,5.62,0,0,1,3.91-9.56Z"/></g></svg>