<svg id="Layer_1" data-name="Layer 1" xmlns="http://www.w3.org/2000/svg" viewBox="0 0 714.64 714.64"><defs><style>.cls-1{fill:#fff;}</style></defs><rect width="714.64" height="714.64" rx="357.32"/><path class="cls-1" d="M517.77,509.93,392.21,327.52,378,306.89,288.2,176.4l-7.45-10.81H170.38l26.92,39.12L316.72,378.22l14.2,20.61,96,139.42,7.44,10.8H544.69Zm-70.33,14.15L347.75,379.24l-14.2-20.62L217.87,190.55h49.76l93.55,135.93,14.2,20.62,121.82,177Z"/><polygon class="cls-1" points="333.55 358.63 347.75 379.24 330.92 398.83 201.79 549.05 169.95 549.05 316.72 378.22 333.55 358.63"/><polygon class="cls-1" points="531.4 165.59 392.21 327.52 375.38 347.1 361.18 326.48 378.01 306.89 472.3 197.15 499.56 165.59 531.4 165.59"/></svg>